<svg width="80" height="80" viewBox="0 0 130 130" fill="none" xmlns="http://www.w3.org/2000/svg"><path d="M118.42 75.84C118.43 83.2392 116.894 90.5589 113.91 97.33H16.09C12.8944 90.0546 11.3622 82.1579 11.6049 74.2154C11.8477 66.2728 13.8593 58.4844 17.4932 51.4177C21.1271 44.3511 26.2918 38.1841 32.6109 33.3662C38.93 28.5483 46.2443 25.2008 54.0209 23.5676C61.7976 21.9345 69.8406 22.0568 77.564 23.9257C85.2873 25.7946 92.4965 29.363 98.6661 34.3709C104.836 39.3787 109.81 45.6999 113.228 52.8739C116.645 60.0478 118.419 67.8937 118.42 75.84Z" fill="#F2F2F2"/><path d="M5.54 97.33H126.37" stroke="#63666A" stroke-width="1" stroke-miterlimit="10" stroke-linecap="round"/><path d="M97 97.33H49.91V34.65C49.91 34.3848 50.0154 34.1305 50.2029 33.9429C50.3904 33.7554 50.6448 33.65 50.91 33.65H84.18C84.6167 33.6541 85.0483 33.7445 85.4499 33.9162C85.8515 34.0878 86.2152 34.3372 86.52 34.65L96.02 44.15C96.3321 44.4533 96.5811 44.8153 96.7527 45.2151C96.9243 45.615 97.0152 46.0449 97.02 46.48L97 97.33Z" fill="#D7D7D7" stroke="#63666A" stroke-width="1" stroke-linecap="round" stroke-linejoin="round"/><path d="M59.09 105.64H42.09C41.8248 105.64 41.5704 105.535 41.3829 105.347C41.1954 105.16 41.09 104.905 41.09 104.64V41.79C41.09 41.5248 41.1954 41.2705 41.3829 41.0829C41.5704 40.8954 41.8248 40.79 42.09 40.79H77.33L89 52.42V104.62C89 104.885 88.8946 105.14 88.7071 105.327C88.5196 105.515 88.2652 105.62 88 105.62H74.86" fill="white"/><path d="M59.09 105.64H42.09C41.8248 105.64 41.5704 105.535 41.3829 105.347C41.1954 105.16 41.09 104.905 41.09 104.64V41.79C41.09 41.5248 41.1954 41.2705 41.3829 41.0829C41.5704 40.8954 41.8248 40.79 42.09 40.79H77.33L89 52.42V104.62C89 104.885 88.8946 105.14 88.7071 105.327C88.5196 105.515 88.2652 105.62 88 105.62H74.86" stroke="#63666A" stroke-width="1" stroke-miterlimit="10" stroke-linecap="round"/><path d="M88.97 52.42H77.33V40.77L88.97 52.42Z" fill="#D7D7D7" stroke="#63666A" stroke-width="1" stroke-linecap="round" stroke-linejoin="round"/><path d="M27.32 65.49V70.6" stroke="#D7D7D7" stroke-width="1" stroke-linecap="round" stroke-linejoin="round"/><path d="M29.88 68.04H24.76" stroke="#D7D7D7" stroke-width="1" stroke-linecap="round" stroke-linejoin="round"/><path d="M110.49 32.5601V39.9901" stroke="#D7D7D7" stroke-width="1" stroke-linecap="round" stroke-linejoin="round"/><path d="M114.2 36.27H106.77" stroke="#D7D7D7" stroke-width="1" stroke-linecap="round" stroke-linejoin="round"/><path d="M34.07 14.58V25.59" stroke="#D7D7D7" stroke-width="1" stroke-linecap="round" stroke-linejoin="round"/><path d="M39.57 20.08H28.57" stroke="#D7D7D7" stroke-width="1.5" stroke-linecap="round" stroke-linejoin="round"/><path d="M67 115.86V67.12" stroke="#63666A" stroke-width="1" stroke-miterlimit="10" stroke-linecap="round"/><path d="M55.5 78.61L67 67.12L78.5 78.61" fill="white"/><path d="M55.5 78.61L67 67.12L78.5 78.61" stroke="#63666A" stroke-width="1" stroke-miterlimit="10"/></svg>